<svg width="1080" height="1080" viewBox="0 0 1080 1080" fill="none" xmlns="http://www.w3.org/2000/svg">
<rect width="1080" height="1080" fill="#E5E5E5"/>
<rect width="1080" height="1080" fill="white"/>
<path d="M241.583 615.644L327.631 562.479C317.925 544.016 314.537 522.181 319.684 500.39C331.067 452.201 379.248 422.432 427.437 433.815C475.626 445.197 505.395 493.378 494.012 541.567C482.629 589.756 434.449 619.525 386.259 608.142C364.469 602.995 346.457 590.195 334.259 573.379L248.211 626.544L241.583 615.644ZM389.201 595.69C430.417 605.426 471.824 579.842 481.56 538.626C491.295 497.41 465.712 456.002 424.496 446.267C383.28 436.531 341.872 462.115 332.136 503.331C322.401 544.547 347.985 585.955 389.201 595.69Z" fill="black"/>
<g filter="url(#filter0_i_0_1)">
<path d="M354.844 509.61C354.844 500.908 358.366 494.94 365.411 491.708C368.809 490.05 372.787 489.222 377.345 489.222C381.241 489.222 384.515 489.719 387.167 490.714L387.167 465.601L400.718 465.601L400.718 552.625L393.88 553.247C388.493 553.827 384.266 554.117 381.199 554.117C378.133 554.117 375.232 553.827 372.497 553.247C369.845 552.666 367.193 551.713 364.54 550.387C361.557 548.895 359.195 546.699 357.454 543.798C355.714 540.897 354.844 537.334 354.844 533.107L354.844 509.61ZM387.167 505.135C384.183 503.726 381.407 503.021 378.837 503.021C375.854 503.021 373.367 503.974 371.378 505.881C369.389 507.787 368.394 510.688 368.394 514.583L368.394 533.977C368.394 536.132 369.555 537.914 371.875 539.323C374.196 540.732 377.138 541.436 380.702 541.436C382.94 541.436 385.095 541.146 387.167 540.566L387.167 505.135Z" fill="#4DCF2C"/>
<path d="M461.675 529.75C461.675 536.712 459.769 542.472 455.957 547.031C452.144 551.589 446.384 553.868 438.676 553.868C430.968 553.868 425.125 551.589 421.147 547.031C417.252 542.389 415.304 536.629 415.304 529.75L415.304 513.34C415.304 505.466 417.293 499.457 421.271 495.313C425.332 491.086 431.134 488.973 438.676 488.973C445.887 488.973 451.523 491.169 455.584 495.562C459.645 499.872 461.675 505.798 461.675 513.34L461.675 529.75ZM448.124 513.34C448.124 508.947 447.213 506.088 445.389 504.762C443.566 503.436 441.328 502.773 438.676 502.773C432.211 502.773 428.979 506.295 428.979 513.34L428.979 530.993C428.979 534.308 429.891 536.712 431.714 538.204C433.538 539.696 435.858 540.442 438.676 540.442C441.411 540.442 443.649 539.654 445.389 538.08C447.213 536.505 448.124 534.143 448.124 530.993L448.124 513.34Z" fill="#4DCF2C"/>
<path d="M105.954 465.228H119.629V552.252H105.954V465.228Z" fill="#4DCF2C"/>
<path d="M166.694 551.506C166.445 551.589 165.492 551.962 163.834 552.625C162.177 553.288 160.022 553.62 157.37 553.62C141.788 553.62 133.998 546.036 133.998 530.869V489.968H147.673V528.88C147.673 532.692 148.336 535.51 149.662 537.334C151.071 539.157 153.64 540.069 157.37 540.069C161.099 540.069 163.586 539.074 164.829 537.085C166.072 535.013 166.694 532.112 166.694 528.383V489.968H180.369V552.252H167.564L166.694 551.506Z" fill="#4DCF2C"/>
<path d="M194.823 489.968H207.753L208.498 490.838C209.41 490.423 210.778 490.009 212.601 489.595C214.507 489.18 216.331 488.973 218.071 488.973C225.779 488.973 231.622 491.211 235.6 495.686C239.661 500.162 241.692 505.963 241.692 513.091V530.372C241.692 537.914 239.579 543.715 235.352 547.776C231.125 551.755 225.53 553.744 218.568 553.744C216.331 553.744 214.632 553.62 213.471 553.371C212.311 553.205 211.316 552.957 210.488 552.625C209.659 552.376 208.996 552.169 208.498 552.003V575.624L194.823 578.359V489.968ZM228.017 512.594C228.017 509.279 227.271 506.751 225.779 505.01C224.37 503.27 221.966 502.4 218.568 502.4C215.17 502.4 212.642 503.27 210.985 505.01C209.327 506.668 208.498 508.989 208.498 511.972V528.88C208.498 532.195 209.203 534.889 210.612 536.961C212.104 539.033 214.756 540.069 218.568 540.069C222.381 540.069 224.909 539.074 226.152 537.085C227.395 535.096 228.017 531.781 228.017 527.139V512.594Z" fill="#4DCF2C"/>
<path d="M299.021 552.252C290.07 553.164 283.605 553.62 279.627 553.62C270.925 553.62 264.004 552.003 258.866 548.771C253.727 545.539 251.158 539.696 251.158 531.242V520.923C251.158 512.718 254.017 507.207 259.736 504.389C262.471 503.063 265.579 502.4 269.06 502.4C272.126 502.4 275.152 502.814 278.135 503.643C281.119 504.472 283.522 505.383 285.346 506.378C285.346 503.311 284.103 501.239 281.616 500.162C279.13 499.002 275.939 498.421 272.044 498.421L273.162 488.973C281.119 488.973 286.962 490.258 290.692 492.827C294.504 495.313 296.825 498.297 297.654 501.778C298.565 505.259 299.021 509.735 299.021 515.205V552.252ZM285.346 520.923C283.854 519.846 281.741 518.851 279.006 517.94C276.353 516.945 273.908 516.448 271.671 516.448C269.682 516.448 268.065 516.945 266.822 517.94C265.579 518.934 264.957 520.509 264.957 522.664V529.501C264.957 537.044 269.391 540.815 278.26 540.815C280.829 540.815 283.191 540.607 285.346 540.193V520.923Z" fill="#4DCF2C"/>
<path d="M528.4 533.728C528.4 536.049 529.022 537.872 530.265 539.198C531.591 540.442 533.497 541.063 535.984 541.063C539.796 541.063 544.893 539.406 551.275 536.09L556.248 547.901C553.264 549.807 549.866 551.257 546.053 552.252C542.241 553.247 538.429 553.744 534.616 553.744C528.483 553.744 523.593 552.252 519.946 549.268C516.382 546.202 514.6 541.643 514.6 535.593V510.107C514.6 503.394 516.672 498.173 520.817 494.443C525.043 490.714 530.596 488.849 537.475 488.849C544.354 488.849 549.7 490.714 553.513 494.443C557.408 498.09 559.356 503.187 559.356 509.735V528.631L528.4 530.247V533.728ZM545.556 509.983C545.556 507.497 544.769 505.59 543.194 504.264C541.619 502.938 539.672 502.275 537.351 502.275C534.202 502.275 531.922 503.104 530.513 504.762C529.105 506.419 528.4 508.243 528.4 510.232V517.691L545.556 516.572V509.983Z" fill="#4DCF2C"/>
<path d="M582.304 535.096C582.304 536.588 583.05 537.997 584.542 539.323C586.117 540.649 588.479 541.312 591.629 541.312C594.364 541.312 596.477 540.649 597.969 539.323C599.461 537.914 600.207 536.298 600.207 534.474C600.207 531.905 599.253 529.999 597.347 528.756C595.524 527.512 592.54 526.145 588.396 524.653C584.832 523.493 581.89 522.332 579.569 521.172C577.249 520.012 575.177 518.271 573.353 515.951C571.53 513.63 570.453 510.605 570.121 506.875C569.872 504.057 570.411 501.239 571.737 498.421C573.146 495.521 575.467 493.158 578.699 491.335C582.014 489.429 586.241 488.476 591.38 488.476C594.032 488.476 596.353 488.766 598.342 489.346C600.414 489.843 602.03 490.382 603.19 490.962C604.351 491.542 605.055 491.915 605.304 492.081L601.325 504.762C601.16 504.596 600.704 504.306 599.958 503.891C599.295 503.394 598.217 502.938 596.726 502.524C595.234 502.11 593.452 501.902 591.38 501.902C586.904 501.902 584.667 503.146 584.667 505.632C584.667 506.129 584.749 506.627 584.915 507.124C585.164 508.284 586.034 509.279 587.526 510.107C589.018 510.853 591.214 511.765 594.115 512.843C598.176 514.334 601.574 515.826 604.309 517.318C607.127 518.727 609.531 520.882 611.52 523.783C613.592 526.601 614.628 530.247 614.628 534.723C614.628 538.121 613.799 541.312 612.141 544.296C610.484 547.196 607.914 549.558 604.433 551.382C601.035 553.205 596.767 554.117 591.629 554.117C586.904 554.117 582.802 553.329 579.321 551.755C575.923 550.097 573.312 547.942 571.489 545.29C569.748 542.638 568.795 539.696 568.629 536.463L582.304 535.096Z" fill="#4DCF2C"/>
<path d="M642.061 553.868C629.463 553.62 623.164 547.611 623.164 535.842V465.228H637.088V489.968H648.898L645.915 502.773H637.088V535.842C637.088 538.66 637.875 540.566 639.45 541.56C641.025 542.472 643.263 542.928 646.163 542.928L642.061 553.868Z" fill="#4DCF2C"/>
<path d="M688.981 551.506C688.732 551.589 687.779 551.962 686.122 552.625C684.464 553.288 682.309 553.62 679.657 553.62C664.075 553.62 656.285 546.036 656.285 530.869V489.968H669.96V528.88C669.96 532.692 670.623 535.51 671.949 537.334C673.358 539.157 675.927 540.069 679.657 540.069C683.387 540.069 685.873 539.074 687.116 537.085C688.359 535.013 688.981 532.112 688.981 528.383V489.968H702.656V552.252H689.851L688.981 551.506Z" fill="#4DCF2C"/>
<path d="M717.11 509.237C717.11 500.535 720.633 494.567 727.678 491.335C731.076 489.678 735.054 488.849 739.612 488.849C743.508 488.849 746.781 489.346 749.434 490.341V465.228H762.985V552.252L756.147 552.874C750.76 553.454 746.533 553.744 743.466 553.744C740.4 553.744 737.499 553.454 734.764 552.874C732.112 552.293 729.46 551.34 726.807 550.014C723.824 548.522 721.462 546.326 719.721 543.425C717.981 540.524 717.11 536.961 717.11 532.734V509.237ZM749.434 504.762C746.45 503.353 743.673 502.648 741.104 502.648C738.12 502.648 735.634 503.601 733.645 505.508C731.656 507.414 730.661 510.315 730.661 514.21V533.604C730.661 535.759 731.822 537.541 734.142 538.95C736.463 540.359 739.405 541.063 742.969 541.063C745.207 541.063 747.362 540.773 749.434 540.193V504.762Z" fill="#4DCF2C"/>
<path d="M820.337 552.252C811.386 553.164 804.921 553.62 800.943 553.62C792.241 553.62 785.32 552.003 780.182 548.771C775.043 545.539 772.474 539.696 772.474 531.242V520.923C772.474 512.718 775.333 507.207 781.052 504.389C783.787 503.063 786.895 502.4 790.376 502.4C793.443 502.4 796.468 502.814 799.451 503.643C802.435 504.472 804.839 505.383 806.662 506.378C806.662 503.311 805.419 501.239 802.932 500.162C800.446 499.002 797.255 498.421 793.36 498.421L794.479 488.973C802.435 488.973 808.278 490.258 812.008 492.827C815.82 495.313 818.141 498.297 818.97 501.778C819.881 505.259 820.337 509.735 820.337 515.205V552.252ZM806.662 520.923C805.17 519.846 803.057 518.851 800.322 517.94C797.669 516.945 795.224 516.448 792.987 516.448C790.998 516.448 789.381 516.945 788.138 517.94C786.895 518.934 786.273 520.509 786.273 522.664V529.501C786.273 537.044 790.707 540.815 799.576 540.815C802.145 540.815 804.507 540.607 806.662 540.193V520.923Z" fill="#4DCF2C"/>
<path d="M864.969 513.091C864.969 509.776 864.016 507.124 862.11 505.135C860.286 503.063 857.8 502.027 854.65 502.027C852.081 502.027 849.305 502.773 846.321 504.264V552.252H832.77V489.968H844.829L846.445 490.714C849.926 489.553 853.532 488.973 857.261 488.973C861.405 488.973 865.01 489.719 868.077 491.211C871.392 492.703 873.962 494.94 875.785 497.924C877.691 500.908 878.644 504.679 878.644 509.237V552.252H864.969V513.091Z" fill="#4DCF2C"/>
<path d="M911.341 553.868C898.743 553.62 892.444 547.611 892.444 535.842V465.228H906.368V489.968H918.178L915.194 502.773H906.368V535.842C906.368 538.66 907.155 540.566 908.73 541.56C910.305 542.472 912.542 542.928 915.443 542.928L911.341 553.868Z" fill="#4DCF2C"/>
<path d="M939.24 533.728C939.24 536.049 939.861 537.872 941.105 539.198C942.431 540.442 944.337 541.063 946.823 541.063C950.636 541.063 955.733 539.406 962.115 536.09L967.087 547.901C964.104 549.807 960.706 551.257 956.893 552.252C953.081 553.247 949.268 553.744 945.456 553.744C939.323 553.744 934.433 552.252 930.786 549.268C927.222 546.202 925.44 541.643 925.44 535.593V510.107C925.44 503.394 927.512 498.173 931.656 494.443C935.883 490.714 941.436 488.849 948.315 488.849C955.194 488.849 960.54 490.714 964.352 494.443C968.248 498.09 970.195 503.187 970.195 509.735V528.631L939.24 530.247V533.728ZM956.396 509.983C956.396 507.497 955.609 505.59 954.034 504.264C952.459 502.938 950.511 502.275 948.191 502.275C945.041 502.275 942.762 503.104 941.353 504.762C939.944 506.419 939.24 508.243 939.24 510.232V517.691L956.396 516.572V509.983Z" fill="#4DCF2C"/>
</g>
<defs>
<filter id="filter0_i_0_1" x="105.954" y="465.228" width="864.242" height="117.131" filterUnits="userSpaceOnUse" color-interpolation-filters="sRGB">
<feFlood flood-opacity="0" result="BackgroundImageFix"/>
<feBlend mode="normal" in="SourceGraphic" in2="BackgroundImageFix" result="shape"/>
<feColorMatrix in="SourceAlpha" type="matrix" values="0 0 0 0 0 0 0 0 0 0 0 0 0 0 0 0 0 0 127 0" result="hardAlpha"/>
<feOffset dy="4"/>
<feGaussianBlur stdDeviation="2"/>
<feComposite in2="hardAlpha" operator="arithmetic" k2="-1" k3="1"/>
<feColorMatrix type="matrix" values="0 0 0 0 0 0 0 0 0 0 0 0 0 0 0 0 0 0 0.1 0"/>
<feBlend mode="normal" in2="shape" result="effect1_innerShadow_0_1"/>
</filter>
</defs>
</svg>
