<svg width="866" height="276" viewBox="0 0 866 276" fill="none" xmlns="http://www.w3.org/2000/svg">
<path d="M136.508 214.001L222.556 160.836C212.85 142.373 209.463 120.538 214.61 98.7469C225.992 50.5578 274.173 20.7892 322.362 32.1718C370.551 43.5545 400.32 91.7352 388.937 139.924C377.555 188.113 329.374 217.882 281.185 206.499C259.394 201.352 241.383 188.552 229.184 171.736L143.136 224.901L136.508 214.001ZM284.126 194.047C325.342 203.783 366.75 178.199 376.485 136.983C386.221 95.7671 360.637 54.3593 319.421 44.6238C278.205 34.8883 236.797 60.4722 227.062 101.688C217.326 142.904 242.91 184.312 284.126 194.047Z" fill="black"/>
<g filter="url(#filter0_i_1_28)">
<path d="M249.769 107.967C249.769 99.2648 253.291 93.2974 260.336 90.0651C263.734 88.4075 267.712 87.5787 272.271 87.5787C276.166 87.5787 279.44 88.076 282.092 89.0706L282.092 63.9579L295.643 63.9579L295.643 150.982L288.805 151.604C283.418 152.184 279.191 152.474 276.125 152.474C273.058 152.474 270.157 152.184 267.422 151.604C264.77 151.023 262.118 150.07 259.466 148.744C256.482 147.252 254.12 145.056 252.38 142.155C250.639 139.254 249.769 135.691 249.769 131.464L249.769 107.967ZM282.092 103.492C279.109 102.083 276.332 101.378 273.763 101.378C270.779 101.378 268.293 102.331 266.304 104.238C264.314 106.144 263.32 109.045 263.32 112.94L263.32 132.334C263.32 134.489 264.48 136.271 266.801 137.68C269.121 139.089 272.064 139.793 275.628 139.793C277.865 139.793 280.02 139.503 282.092 138.923L282.092 103.492Z" fill="#4DCF2C"/>
<path d="M356.601 128.107C356.601 135.069 354.695 140.829 350.882 145.388C347.07 149.946 341.309 152.225 333.602 152.225C325.894 152.225 320.051 149.946 316.072 145.388C312.177 140.746 310.229 134.986 310.229 128.107L310.229 111.697C310.229 103.823 312.218 97.8144 316.197 93.6704C320.258 89.4435 326.059 87.3301 333.602 87.3301C340.812 87.3301 346.448 89.5264 350.509 93.919C354.57 98.2288 356.601 104.155 356.601 111.697L356.601 128.107ZM343.05 111.697C343.05 107.304 342.138 104.445 340.315 103.119C338.491 101.793 336.254 101.13 333.602 101.13C327.137 101.13 323.905 104.652 323.905 111.697L323.905 129.35C323.905 132.666 324.816 135.069 326.64 136.561C328.463 138.053 330.784 138.799 333.602 138.799C336.337 138.799 338.574 138.011 340.315 136.437C342.138 134.862 343.05 132.5 343.05 129.35L343.05 111.697Z" fill="#4DCF2C"/>
<path d="M0.87912 63.5849H14.5543V150.609H0.87912V63.5849Z" fill="#4DCF2C"/>
<path d="M61.6193 149.863C61.3706 149.946 60.4175 150.319 58.7599 150.982C57.1023 151.645 54.9474 151.977 52.2952 151.977C36.7138 151.977 28.923 144.393 28.923 129.226V88.3246H42.5983V127.237C42.5983 131.049 43.2613 133.867 44.5874 135.691C45.9964 137.514 48.5656 138.426 52.2952 138.426C56.0249 138.426 58.5113 137.431 59.7545 135.442C60.9977 133.37 61.6193 130.469 61.6193 126.74V88.3246H75.2945V150.609H62.4895L61.6193 149.863Z" fill="#4DCF2C"/>
<path d="M89.7487 88.3246H102.678L103.424 89.1949C104.336 88.7805 105.703 88.3661 107.526 87.9517C109.433 87.5373 111.256 87.3301 112.997 87.3301C120.704 87.3301 126.547 89.5678 130.526 94.0434C134.587 98.5189 136.617 104.321 136.617 111.448V128.729C136.617 136.271 134.504 142.072 130.277 146.134C126.05 150.112 120.456 152.101 113.494 152.101C111.256 152.101 109.557 151.977 108.397 151.728C107.236 151.562 106.242 151.314 105.413 150.982C104.584 150.733 103.921 150.526 103.424 150.36V173.981L89.7487 176.716V88.3246ZM122.942 110.951C122.942 107.636 122.196 105.108 120.704 103.367C119.295 101.627 116.892 100.757 113.494 100.757C110.096 100.757 107.568 101.627 105.91 103.367C104.253 105.025 103.424 107.346 103.424 110.329V127.237C103.424 130.552 104.128 133.246 105.537 135.318C107.029 137.39 109.681 138.426 113.494 138.426C117.306 138.426 119.834 137.431 121.077 135.442C122.321 133.453 122.942 130.138 122.942 125.496V110.951Z" fill="#4DCF2C"/>
<path d="M193.947 150.609C184.995 151.521 178.531 151.977 174.553 151.977C165.85 151.977 158.93 150.36 153.791 147.128C148.652 143.896 146.083 138.053 146.083 129.599V119.28C146.083 111.075 148.943 105.564 154.661 102.746C157.396 101.42 160.504 100.757 163.985 100.757C167.052 100.757 170.077 101.171 173.061 102C176.044 102.829 178.448 103.74 180.271 104.735C180.271 101.668 179.028 99.5963 176.542 98.5189C174.055 97.3586 170.864 96.7784 166.969 96.7784L168.088 87.3301C176.044 87.3301 181.887 88.6147 185.617 91.184C189.43 93.6704 191.75 96.6541 192.579 100.135C193.491 103.616 193.947 108.092 193.947 113.562V150.609ZM180.271 119.28C178.779 118.203 176.666 117.208 173.931 116.297C171.279 115.302 168.834 114.805 166.596 114.805C164.607 114.805 162.991 115.302 161.748 116.297C160.504 117.291 159.883 118.866 159.883 121.021V127.858C159.883 135.401 164.317 139.172 173.185 139.172C175.754 139.172 178.116 138.964 180.271 138.55V119.28Z" fill="#4DCF2C"/>
<path d="M423.325 132.085C423.325 134.406 423.947 136.229 425.19 137.555C426.516 138.799 428.423 139.42 430.909 139.42C434.721 139.42 439.819 137.763 446.2 134.447L451.173 146.258C448.189 148.164 444.791 149.615 440.979 150.609C437.166 151.604 433.354 152.101 429.541 152.101C423.408 152.101 418.518 150.609 414.872 147.625C411.308 144.559 409.526 140 409.526 133.95V108.465C409.526 101.751 411.598 96.5298 415.742 92.8002C419.969 89.0706 425.522 87.2058 432.401 87.2058C439.28 87.2058 444.626 89.0706 448.438 92.8002C452.333 96.4469 454.281 101.544 454.281 108.092V126.988L423.325 128.604V132.085ZM440.482 108.34C440.482 105.854 439.694 103.948 438.12 102.621C436.545 101.295 434.597 100.632 432.276 100.632C429.127 100.632 426.848 101.461 425.439 103.119C424.03 104.776 423.325 106.6 423.325 108.589V116.048L440.482 114.929V108.34Z" fill="#4DCF2C"/>
<path d="M477.23 133.453C477.23 134.945 477.976 136.354 479.468 137.68C481.042 139.006 483.404 139.669 486.554 139.669C489.289 139.669 491.402 139.006 492.894 137.68C494.386 136.271 495.132 134.655 495.132 132.831C495.132 130.262 494.179 128.356 492.273 127.113C490.449 125.869 487.466 124.502 483.322 123.01C479.758 121.85 476.816 120.689 474.495 119.529C472.174 118.369 470.102 116.628 468.279 114.308C466.455 111.987 465.378 108.962 465.047 105.232C464.798 102.414 465.337 99.5963 466.663 96.7784C468.072 93.8776 470.392 91.5155 473.625 89.6922C476.94 87.7859 481.167 86.8328 486.305 86.8328C488.957 86.8328 491.278 87.1229 493.267 87.703C495.339 88.2003 496.955 88.739 498.116 89.3192C499.276 89.8994 499.981 90.2723 500.229 90.4381L496.251 103.119C496.085 102.953 495.629 102.663 494.883 102.249C494.22 101.751 493.143 101.295 491.651 100.881C490.159 100.467 488.377 100.259 486.305 100.259C481.83 100.259 479.592 101.503 479.592 103.989C479.592 104.486 479.675 104.984 479.841 105.481C480.089 106.641 480.96 107.636 482.451 108.465C483.943 109.21 486.14 110.122 489.04 111.2C493.101 112.691 496.5 114.183 499.235 115.675C502.053 117.084 504.456 119.239 506.445 122.14C508.517 124.958 509.553 128.604 509.553 133.08C509.553 136.478 508.724 139.669 507.067 142.653C505.409 145.553 502.84 147.915 499.359 149.739C495.961 151.562 491.693 152.474 486.554 152.474C481.83 152.474 477.727 151.687 474.246 150.112C470.848 148.454 468.237 146.299 466.414 143.647C464.674 140.995 463.72 138.053 463.555 134.82L477.23 133.453Z" fill="#4DCF2C"/>
<path d="M536.986 152.225C524.388 151.977 518.09 145.968 518.09 134.199V63.5849H532.013V88.3246H543.824L540.84 101.13H532.013V134.199C532.013 137.017 532.801 138.923 534.375 139.918C535.95 140.829 538.188 141.285 541.089 141.285L536.986 152.225Z" fill="#4DCF2C"/>
<path d="M583.906 149.863C583.658 149.946 582.705 150.319 581.047 150.982C579.389 151.645 577.235 151.977 574.582 151.977C559.001 151.977 551.21 144.393 551.21 129.226V88.3246H564.885V127.237C564.885 131.049 565.548 133.867 566.875 135.691C568.283 137.514 570.853 138.426 574.582 138.426C578.312 138.426 580.798 137.431 582.042 135.442C583.285 133.37 583.906 130.469 583.906 126.74V88.3246H597.582V150.609H584.777L583.906 149.863Z" fill="#4DCF2C"/>
<path d="M612.036 107.594C612.036 98.8919 615.558 92.9245 622.603 89.6922C626.001 88.0346 629.979 87.2058 634.538 87.2058C638.433 87.2058 641.707 87.703 644.359 88.6976V63.5849H657.91V150.609L651.072 151.231C645.685 151.811 641.458 152.101 638.392 152.101C635.325 152.101 632.424 151.811 629.689 151.231C627.037 150.651 624.385 149.697 621.733 148.371C618.749 146.879 616.387 144.683 614.646 141.782C612.906 138.882 612.036 135.318 612.036 131.091V107.594ZM644.359 103.119C641.375 101.71 638.599 101.005 636.03 101.005C633.046 101.005 630.56 101.958 628.57 103.865C626.581 105.771 625.587 108.672 625.587 112.567V131.961C625.587 134.116 626.747 135.898 629.068 137.307C631.388 138.716 634.331 139.42 637.894 139.42C640.132 139.42 642.287 139.13 644.359 138.55V103.119Z" fill="#4DCF2C"/>
<path d="M715.263 150.609C706.311 151.521 699.847 151.977 695.869 151.977C687.166 151.977 680.246 150.36 675.107 147.128C669.969 143.896 667.399 138.053 667.399 129.599V119.28C667.399 111.075 670.259 105.564 675.977 102.746C678.712 101.42 681.82 100.757 685.301 100.757C688.368 100.757 691.393 101.171 694.377 102C697.36 102.829 699.764 103.74 701.587 104.735C701.587 101.668 700.344 99.5963 697.858 98.5189C695.371 97.3586 692.18 96.7784 688.285 96.7784L689.404 87.3301C697.36 87.3301 703.203 88.6147 706.933 91.184C710.746 93.6704 713.066 96.6541 713.895 100.135C714.807 103.616 715.263 108.092 715.263 113.562V150.609ZM701.587 119.28C700.095 118.203 697.982 117.208 695.247 116.297C692.595 115.302 690.15 114.805 687.912 114.805C685.923 114.805 684.307 115.302 683.064 116.297C681.82 117.291 681.199 118.866 681.199 121.021V127.858C681.199 135.401 685.633 139.172 694.501 139.172C697.07 139.172 699.432 138.964 701.587 138.55V119.28Z" fill="#4DCF2C"/>
<path d="M759.894 111.448C759.894 108.133 758.941 105.481 757.035 103.492C755.212 101.42 752.725 100.384 749.576 100.384C747.007 100.384 744.23 101.13 741.246 102.621V150.609H727.696V88.3246H739.755L741.371 89.0706C744.852 87.9102 748.457 87.3301 752.187 87.3301C756.331 87.3301 759.936 88.076 763.002 89.5678C766.318 91.0597 768.887 93.2975 770.71 96.2811C772.617 99.2648 773.57 103.036 773.57 107.594V150.609H759.894V111.448Z" fill="#4DCF2C"/>
<path d="M806.266 152.225C793.668 151.977 787.369 145.968 787.369 134.199V63.5849H801.293V88.3246H813.104L810.12 101.13H801.293V134.199C801.293 137.017 802.08 138.923 803.655 139.918C805.23 140.829 807.468 141.285 810.368 141.285L806.266 152.225Z" fill="#4DCF2C"/>
<path d="M834.165 132.085C834.165 134.406 834.787 136.229 836.03 137.555C837.356 138.799 839.262 139.42 841.749 139.42C845.561 139.42 850.658 137.763 857.04 134.447L862.013 146.258C859.029 148.164 855.631 149.615 851.819 150.609C848.006 151.604 844.194 152.101 840.381 152.101C834.248 152.101 829.358 150.609 825.711 147.625C822.147 144.559 820.366 140 820.366 133.95V108.465C820.366 101.751 822.438 96.5298 826.582 92.8002C830.809 89.0706 836.361 87.2058 843.241 87.2058C850.12 87.2058 855.465 89.0706 859.278 92.8002C863.173 96.4469 865.121 101.544 865.121 108.092V126.988L834.165 128.604V132.085ZM851.321 108.34C851.321 105.854 850.534 103.948 848.959 102.621C847.384 101.295 845.437 100.632 843.116 100.632C839.967 100.632 837.688 101.461 836.279 103.119C834.87 104.776 834.165 106.6 834.165 108.589V116.048L851.321 114.929V108.34Z" fill="#4DCF2C"/>
</g>
<defs>
<filter id="filter0_i_1_28" x="0.87912" y="63.5849" width="864.242" height="117.131" filterUnits="userSpaceOnUse" color-interpolation-filters="sRGB">
<feFlood flood-opacity="0" result="BackgroundImageFix"/>
<feBlend mode="normal" in="SourceGraphic" in2="BackgroundImageFix" result="shape"/>
<feColorMatrix in="SourceAlpha" type="matrix" values="0 0 0 0 0 0 0 0 0 0 0 0 0 0 0 0 0 0 127 0" result="hardAlpha"/>
<feOffset dy="4"/>
<feGaussianBlur stdDeviation="2"/>
<feComposite in2="hardAlpha" operator="arithmetic" k2="-1" k3="1"/>
<feColorMatrix type="matrix" values="0 0 0 0 0 0 0 0 0 0 0 0 0 0 0 0 0 0 0.1 0"/>
<feBlend mode="normal" in2="shape" result="effect1_innerShadow_1_28"/>
</filter>
</defs>
</svg>
