<?xml version="1.0" encoding="UTF-8"?>
<svg width="700pt" height="700pt" version="1.1" viewBox="0 0 700 700" xmlns="http://www.w3.org/2000/svg">
 <path d="m560 463.75h-420c-9.3789 0-18.043-5.0039-22.734-13.125-4.6875-8.1211-4.6875-18.129 0-26.25 4.6914-8.1211 13.355-13.125 22.734-13.125h420c9.3789 0 18.043 5.0039 22.734 13.125 4.6875 8.1211 4.6875 18.129 0 26.25-4.6914 8.1211-13.355 13.125-22.734 13.125zm-148.23-183.75c0.003906-7.0547-2.8359-13.812-7.8711-18.75-5.0391-4.9375-11.852-7.6406-18.902-7.5h-245c-9.3789 0-18.043 5.0039-22.734 13.125-4.6875 8.1211-4.6875 18.129 0 26.25 4.6914 8.1211 13.355 13.125 22.734 13.125h245c7.0508 0.14062 13.863-2.5625 18.902-7.5 5.0352-4.9375 7.875-11.695 7.8711-18.75zm175-157.5c0.003906-7.0547-2.8359-13.812-7.8711-18.75-5.0391-4.9375-11.852-7.6406-18.902-7.5h-420c-9.3789 0-18.043 5.0039-22.734 13.125-4.6875 8.1211-4.6875 18.129 0 26.25 4.6914 8.1211 13.355 13.125 22.734 13.125h420c7.0508 0.14062 13.863-2.5625 18.902-7.5 5.0352-4.9375 7.875-11.695 7.8711-18.75z"/>
</svg>
